<svg xmlns="http://www.w3.org/2000/svg" width="153" height="154" viewBox="0 0 153 154">
  <defs>
    <style>
      .cls-1 {
        fill: #cb2128;
        fill-rule: evenodd;
      }
    </style>
  </defs>
  <path id="Forma_3" data-name="Forma 3" class="cls-1" d="M20.571,63.472a2.211,2.211,0,0,0,1.522-.608l6.652-6.345A2.21,2.21,0,0,0,25.7,53.313l-6.652,6.345A2.212,2.212,0,0,0,20.571,63.472ZM14.53,77.917a2.21,2.21,0,0,0,2.708-1.554l2.1-7.734a2.206,2.206,0,1,0-4.258-1.161L12.98,75.2A2.212,2.212,0,0,0,14.53,77.917ZM14.986,95.54a2.21,2.21,0,0,0,2.206-2.211V84.95a2.206,2.206,0,1,0-4.413,0v8.38A2.21,2.21,0,0,0,14.986,95.54ZM32.1,60.684a2.21,2.21,0,0,0-3.051.66l-4.625,7.188a2.208,2.208,0,1,0,3.709,2.4l4.625-7.188A2.216,2.216,0,0,0,32.1,60.684ZM24.681,75.976a2.21,2.21,0,0,0-2.206,2.21V84.95a2.206,2.206,0,1,0,4.413,0V78.186A2.21,2.21,0,0,0,24.681,75.976Zm12.012-9.492a2.189,2.189,0,0,0-2.637,1.672l-1.848,8.235a2.209,2.209,0,0,0,1.669,2.639,2.146,2.146,0,0,0,.486.055,2.208,2.208,0,0,0,2.151-1.727l1.848-8.235A2.21,2.21,0,0,0,36.693,66.484ZM34.828,83.333a2.209,2.209,0,0,0-2.206,2.211v8.383a2.206,2.206,0,1,0,4.413,0V85.544A2.209,2.209,0,0,0,34.828,83.333Zm117.205-8.421L96.357,1.726a2.205,2.205,0,0,0-3.092-.418L30.658,49.123a2.213,2.213,0,0,0-.417,3.1l55.677,73.186a2.2,2.2,0,0,0,1.46.85,2.086,2.086,0,0,0,.295.021,2.21,2.21,0,0,0,1.338-.453l62.606-47.815A2.213,2.213,0,0,0,152.033,74.912ZM35.088,51.3l59.1-45.135,1.594,2.1L47.944,68.2Zm48.647,63.947L50.7,71.825,98.538,11.886l33.033,43.421Zm4.354,5.724-1.6-2.1,47.835-59.938,12.857,16.9ZM80.075,54.657A57.035,57.035,0,0,1,92.087,43.321,2.211,2.211,0,0,0,89.6,39.666,61.658,61.658,0,0,0,76.634,51.887c-5.7,7.105-9.685,14.932-11.223,22.044C63.758,81.575,65.1,87.6,69.2,90.9a11.924,11.924,0,0,0,7.643,2.487c0.045,0,.093-0.005.138-0.006l0.808,3.226,7.9-7.671-10.579-3.02,0.75,2.993a7.1,7.1,0,0,1-3.893-1.453c-2.689-2.166-3.508-6.756-2.246-12.59C71.12,68.415,74.8,61.237,80.075,54.657Zm31.817-18.594a12.086,12.086,0,0,0-7.767-2.427L103.3,30.361l-7.9,7.67,10.579,3.021-0.749-2.988a7.1,7.1,0,0,1,3.892,1.446c2.689,2.166,3.508,6.757,2.246,12.591-1.4,6.456-5.071,13.633-10.349,20.214a57.347,57.347,0,0,1-12.016,11.34,2.211,2.211,0,0,0,1.248,4.034A2.184,2.184,0,0,0,91.5,87.3a61.911,61.911,0,0,0,12.962-12.217c5.7-7.105,9.686-14.936,11.223-22.048C117.339,45.393,115.991,39.365,111.892,36.063ZM54.173,97.15H26.809V92.5a2.206,2.206,0,1,0-4.413,0V97.15H2.424A2.208,2.208,0,0,0,.247,99.723l8.625,51.851a2.207,2.207,0,0,0,2.177,1.847h34.5a2.207,2.207,0,0,0,2.177-1.847L56.35,99.723A2.208,2.208,0,0,0,54.173,97.15ZM43.681,149H12.918l-1.729-10.394H24.6a2.211,2.211,0,0,0,0-4.421H10.454l-2.961-17.8H24.6a2.211,2.211,0,0,0,0-4.421H6.758L5.029,101.571h46.54Z"/>
</svg>
