<svg id="iconos" xmlns="http://www.w3.org/2000/svg" width="170" height="149" viewBox="0 0 170 149">
  <defs>
    <style>
      .cls-1, .cls-2 {
        fill: #cb2128;
        stroke: #cb2128;
        stroke-linejoin: round;
        fill-rule: evenodd;
      }

      .cls-1 {
        stroke-width: 1px;
      }

      .cls-2 {
        stroke-width: 2px;
      }
    </style>
  </defs>
  <path id="Forma_4" data-name="Forma 4" class="cls-1" d="M142.118,37.51H131L122.027,28.2c-0.03-.031-0.071-0.042-0.1-0.071a2.594,2.594,0,0,0-.6-0.359c-0.039-.013-0.068-0.043-0.108-0.054a85.22,85.22,0,0,0-45.847,0,0.136,0.136,0,0,0-.014.007H75.338c-0.035.01-.06,0.037-0.093,0.049a1.714,1.714,0,0,0-.3.156,1.81,1.81,0,0,0-.223.119c-0.033.027-.053,0.063-0.084,0.092s-0.061.033-.086,0.06L65.579,37.51H54.46a1.789,1.789,0,0,0-1.79,1.789V146.265a1.789,1.789,0,0,0,1.79,1.789h87.658a1.789,1.789,0,0,0,1.79-1.789V39.3A1.789,1.789,0,0,0,142.118,37.51Zm-1.79,75.229H113.475V102.191h26.853v10.548Zm0-14.127H111.685a1.79,1.79,0,0,0-1.79,1.79v44.073H100.08V67.851L118.467,83.9a1.789,1.789,0,0,0,2.915-.923l10.261-41.884h8.685V98.612ZM98.292,61.5A69.154,69.154,0,0,1,84.224,44.361a65.2,65.2,0,0,1,28.16.006A69.5,69.5,0,0,1,98.292,61.5ZM121.5,32.812l6.764,7.019-9.661,39.436L100.978,63.885a72.381,72.381,0,0,0,15.47-19.528,1.75,1.75,0,0,0,.488-0.845c0.006-.028,0-0.054,0-0.082A73.369,73.369,0,0,0,121.5,32.812ZM118.481,30.7a69.536,69.536,0,0,1-4.315,10.385,69.1,69.1,0,0,0-31.718-.007,70.072,70.072,0,0,1-4.3-10.352A81.529,81.529,0,0,1,118.481,30.7Zm-43.4,2.117a73.289,73.289,0,0,0,4.564,10.616c0.005,0.028,0,.055,0,0.083a1.743,1.743,0,0,0,.479.829A72.385,72.385,0,0,0,95.6,63.885L77.975,79.267,68.313,39.831ZM64.936,41.089L75.2,82.975a1.79,1.79,0,0,0,2.915.921L96.5,67.85v76.625H86.685V100.4a1.79,1.79,0,0,0-1.79-1.79H56.25V41.089h8.686Zm-8.686,61.1H83.105v10.548H56.25V102.191Zm0,14.127H83.105v28.157H56.25V116.318Zm57.225,28.157V116.318h26.853v28.157H113.475Z"/>
  <path id="Forma_5" data-name="Forma 5" class="cls-1" d="M26.825,91.075a19.124,19.124,0,0,0,4.948-6.212,13.062,13.062,0,0,0,1.361.075,24.863,24.863,0,0,0,10.294-2.794,1.321,1.321,0,0,0,.694-1.184c-0.007-.353-0.169-7.126-3.434-11.585,3.219-4.44,3.426-11.136,3.434-11.438a1.323,1.323,0,0,0-.686-1.191c-0.3-.168-6.169-3.33-11.631-2.807-1.764-3.959-5.709-6.988-7.437-8.177l-1.489-.938-1.184.685c-1.442.951-5.854,4.115-7.781,8.373-5.488-.611-11.472,2.569-11.737,2.712a1.319,1.319,0,0,0-.7,1.185c0.007,0.352.17,7.122,3.434,11.582C1.695,73.8,1.488,80.5,1.48,80.8a1.322,1.322,0,0,0,.686,1.191c0.282,0.156,5.311,2.877,10.381,2.877a13.083,13.083,0,0,0,1.338-.067c2.242,5.025,8.01,8.565,8.272,8.724a1.329,1.329,0,0,0,1.376,0c0.075-.045.49-0.3,1.1-0.735M22.845,47.927c1.43,0.989,4.709,3.5,6.3,6.6a8.671,8.671,0,0,0-1.274.59C24.7,56.937,23.1,60.588,22.3,63.67a5.716,5.716,0,0,0-3,1.164C17.47,63,15.644,60.507,15.644,57.856,15.644,53.308,20.922,49.253,22.845,47.927Zm5.171,23.865a5,5,0,0,0,.48-3.171c2.531-.662,5.643-0.99,7.956.358,3.941,2.293,4.792,8.882,4.973,11.2-1.568.729-5.367,2.277-8.848,2.093a8.649,8.649,0,0,0,.121-1.394C32.7,77.228,30.308,74.027,28.016,71.792Zm9.774-5.1c-3.166-1.843-7.135-1.4-10.222-.561a5.787,5.787,0,0,0-2.626-2.1c0.688-2.5,1.946-5.308,4.251-6.627,3.96-2.265,10.115.281,12.225,1.279-0.145,1.723-.685,5.789-2.6,8.715A8.7,8.7,0,0,0,37.79,66.7Zm-11.87,2.672A3.117,3.117,0,1,1,22.8,66.262,3.116,3.116,0,0,1,25.919,69.369ZM4.178,58.555c1.583-.735,5.42-2.3,8.932-2.083a8.649,8.649,0,0,0-.118,1.384c0,2.957,1.608,6.061,4.629,9.031a4.988,4.988,0,0,0-.513,3.231c-2.531.663-5.64,0.993-7.956-.357C5.212,67.466,4.358,60.878,4.178,58.555ZM4.184,80.046c0.145-1.722.687-5.787,2.6-8.715a8.7,8.7,0,0,0,1.033.711,10.366,10.366,0,0,0,5.269,1.288,19.076,19.076,0,0,0,4.951-.73,5.789,5.789,0,0,0,2.626,2.1c-0.688,2.5-1.946,5.309-4.251,6.627C12.454,83.594,6.293,81.047,4.184,80.046Zm18.66,10.767c-1.433-.991-4.728-3.508-6.315-6.629a8.689,8.689,0,0,0,1.2-.567c2.583-1.477,4.487-4.431,5.563-8.548a5.718,5.718,0,0,0,3.059-1.2c1.847,1.844,3.692,4.349,3.692,7.016C30.045,85.43,24.767,89.486,22.845,90.813Z"/>
  <path id="Forma_5_copia_2" data-name="Forma 5 copia 2" class="cls-2" d="M44.592,38.31A12.973,12.973,0,0,0,47.948,34.1a8.9,8.9,0,0,0,.923.051,16.86,16.86,0,0,0,6.981-1.895,0.9,0.9,0,0,0,.471-0.8c0-.239-0.114-4.833-2.328-7.857,2.183-3.011,2.323-7.552,2.328-7.757a0.9,0.9,0,0,0-.465-0.807c-0.207-.114-4.184-2.258-7.888-1.9a14.973,14.973,0,0,0-5.043-5.545l-1.01-.636-0.8.464a15.332,15.332,0,0,0-5.277,5.679c-3.722-.414-7.78,1.743-7.96,1.839a0.894,0.894,0,0,0-.472.8c0,0.239.115,4.83,2.329,7.855C27.55,26.6,27.41,31.138,27.4,31.342a0.9,0.9,0,0,0,.465.807,16.707,16.707,0,0,0,7.04,1.952,8.874,8.874,0,0,0,.908-0.046c1.52,3.408,5.432,5.809,5.61,5.916a0.9,0.9,0,0,0,.933,0c0.051-.031.333-0.2,0.749-0.5M41.893,9.047a13.9,13.9,0,0,1,4.273,4.479,5.9,5.9,0,0,0-.864.4c-2.153,1.232-3.233,3.708-3.779,5.8a3.875,3.875,0,0,0-2.036.789c-1.239-1.244-2.477-2.934-2.477-4.732C37.01,12.7,40.589,9.947,41.893,9.047ZM45.4,25.232a3.848,3.848,0,0,0,.377-1.643,3.808,3.808,0,0,0-.052-0.507c1.716-.449,3.827-0.672,5.4.242,2.673,1.555,3.25,6.024,3.372,7.6a13.986,13.986,0,0,1-6,1.419,5.852,5.852,0,0,0,.082-0.945C48.575,28.919,46.954,26.748,45.4,25.232Zm6.628-3.455c-2.147-1.25-4.839-.951-6.932-0.381a3.927,3.927,0,0,0-1.781-1.422c0.467-1.692,1.32-3.6,2.883-4.494,2.685-1.536,6.86.19,8.29,0.868a13.778,13.778,0,0,1-1.76,5.911A5.868,5.868,0,0,0,52.029,21.777Zm-8.05,1.812a2.114,2.114,0,1,1-2.115-2.107A2.113,2.113,0,0,1,43.978,23.589ZM29.234,16.255a13.876,13.876,0,0,1,6.058-1.412,5.864,5.864,0,0,0-.08.938c0,2.005,1.09,4.111,3.139,6.124A3.385,3.385,0,0,0,38,24.1c-1.716.45-3.825,0.673-5.4-.242C29.935,22.3,29.356,17.831,29.234,16.255Zm0,14.575A13.787,13.787,0,0,1,31,24.92a5.879,5.879,0,0,0,.7.482,7.028,7.028,0,0,0,3.573.874,12.942,12.942,0,0,0,3.358-.495A3.928,3.928,0,0,0,40.412,27.2c-0.467,1.692-1.32,3.6-2.883,4.494C34.846,33.236,30.669,31.508,29.238,30.83Zm12.655,7.3a13.878,13.878,0,0,1-4.282-4.5,5.931,5.931,0,0,0,.814-0.384c1.751-1,3.043-3.005,3.773-5.8a3.877,3.877,0,0,0,2.075-.816c1.252,1.251,2.5,2.95,2.5,4.758C46.776,34.481,43.2,37.232,41.893,38.132Z"/>
  <path id="Forma_5_copia" data-name="Forma 5 copia" class="cls-1" d="M158.564,27.743a11.073,11.073,0,0,0,2.862-3.592,7.544,7.544,0,0,0,.787.043,14.378,14.378,0,0,0,5.952-1.615,0.765,0.765,0,0,0,.4-0.685c0-.2-0.1-4.121-1.986-6.7,1.862-2.567,1.981-6.44,1.986-6.614a0.767,0.767,0,0,0-.4-0.688,13.555,13.555,0,0,0-6.726-1.623,12.771,12.771,0,0,0-4.3-4.728L156.283,1l-0.685.4a13.066,13.066,0,0,0-4.5,4.842c-3.174-.353-6.634,1.486-6.787,1.568a0.763,0.763,0,0,0-.4.686c0,0.2.1,4.119,1.986,6.7-1.862,2.567-1.981,6.441-1.986,6.615a0.764,0.764,0,0,0,.4.688,14.254,14.254,0,0,0,6,1.664,7.456,7.456,0,0,0,.774-0.039c1.3,2.906,4.632,4.953,4.783,5.044a0.767,0.767,0,0,0,.8,0c0.043-.026.283-0.174,0.639-0.425M156.263,2.792a11.856,11.856,0,0,1,3.643,3.819,5.065,5.065,0,0,0-.736.341c-1.836,1.051-2.757,3.161-3.222,4.943a3.3,3.3,0,0,0-1.736.673A6.2,6.2,0,0,1,152.1,8.533C152.1,5.9,155.151,3.559,156.263,2.792Zm2.99,13.8a2.885,2.885,0,0,0,.278-1.834,6.274,6.274,0,0,1,4.6.207c2.279,1.326,2.771,5.136,2.876,6.479a11.929,11.929,0,0,1-5.117,1.21,5.012,5.012,0,0,0,.07-0.806C161.96,19.735,160.579,17.885,159.253,16.592Zm5.652-2.946c-1.831-1.065-4.126-.81-5.911-0.325a3.349,3.349,0,0,0-1.518-1.212,6.2,6.2,0,0,1,2.458-3.831c2.29-1.31,5.849.162,7.069,0.739a11.751,11.751,0,0,1-1.5,5.04A4.949,4.949,0,0,0,164.905,13.646Zm-6.864,1.545a1.8,1.8,0,1,1-1.8-1.8A1.8,1.8,0,0,1,158.041,15.191ZM145.469,8.938a11.823,11.823,0,0,1,5.165-1.2,5.049,5.049,0,0,0-.068.8c0,1.71.93,3.5,2.677,5.222a2.881,2.881,0,0,0-.3,1.868,6.268,6.268,0,0,1-4.6-.207C146.067,14.091,145.573,10.281,145.469,8.938Zm0,12.427a11.743,11.743,0,0,1,1.5-5.04,4.918,4.918,0,0,0,.6.411,6,6,0,0,0,3.047.745,11.042,11.042,0,0,0,2.863-.422A3.35,3.35,0,0,0,155,18.272a6.2,6.2,0,0,1-2.458,3.832C150.254,23.416,146.692,21.943,145.473,21.365Zm10.79,6.226a11.831,11.831,0,0,1-3.651-3.833,5.072,5.072,0,0,0,.694-0.328c1.493-.854,2.595-2.562,3.217-4.943a3.306,3.306,0,0,0,1.769-.7,6.227,6.227,0,0,1,2.134,4.057C160.426,24.478,157.375,26.824,156.263,27.591Z"/>
</svg>
